<svg width="27" height="27" viewBox="0 0 27 27" fill="none" xmlns="http://www.w3.org/2000/svg">
<path d="M16.1174 13.2894L26.0174 3.38942C26.3817 3.01222 26.5833 2.50701 26.5788 1.98262C26.5742 1.45823 26.3639 0.956602 25.9931 0.585786C25.6222 0.21497 25.1206 0.00463244 24.5962 7.56053e-05C24.0718 -0.00448123 23.5666 0.197107 23.1894 0.561424L13.2894 10.4614L3.38942 0.561424C3.01222 0.197107 2.50701 -0.00448123 1.98262 7.56053e-05C1.45823 0.00463244 0.956602 0.21497 0.585786 0.585786C0.21497 0.956602 0.00463244 1.45823 7.56053e-05 1.98262C-0.00448123 2.50701 0.197107 3.01222 0.561424 3.38942L10.4614 13.2894L0.561424 23.1894C0.197107 23.5666 -0.00448123 24.0718 7.56053e-05 24.5962C0.00463244 25.1206 0.21497 25.6222 0.585786 25.9931C0.956602 26.3639 1.45823 26.5742 1.98262 26.5788C2.50701 26.5833 3.01222 26.3817 3.38942 26.0174L13.2894 16.1174L23.1894 26.0174C23.5666 26.3817 24.0718 26.5833 24.5962 26.5788C25.1206 26.5742 25.6222 26.3639 25.9931 25.9931C26.3639 25.6222 26.5742 25.1206 26.5788 24.5962C26.5833 24.0718 26.3817 23.5666 26.0174 23.1894L16.1174 13.2894Z" fill="black"/>
</svg>
