<svg width="26" height="25" viewBox="0 0 26 25" fill="none" xmlns="http://www.w3.org/2000/svg">
<path d="M1.56248 23.4258L1.56252 21.8403C1.56252 21.2192 2.02891 21.0242 2.21487 20.9383L9.0762 17.7004C9.56797 17.4746 9.90742 17.009 9.97346 16.4719C10.0399 15.9348 9.82307 15.4016 9.40078 15.0629C7.77773 13.7598 7.02148 10.8953 7.02148 9.36992V5.46563C7.02148 3.8332 9.86328 1.56289 12.4934 1.56289C15.1465 1.56289 17.9605 3.79766 17.9605 5.46563V9.36992C17.9605 10.8727 17.3355 13.7477 15.6594 15.0676C15.4492 15.233 15.285 15.4497 15.1825 15.6968C15.0801 15.944 15.0428 16.2132 15.0742 16.4789C15.1383 17.0199 15.4793 17.4875 15.9738 17.7148L19.9348 19.6008L20.866 18.2809L16.6262 16.2949C18.7906 14.5914 19.523 11.2449 19.523 9.36951V5.46521C19.523 2.87927 15.9434 0 12.4934 0C9.04336 0 5.45898 2.8793 5.45898 5.46521V9.36951C5.45898 11.0754 6.2375 14.5269 8.42266 16.2808L1.56133 19.5195C1.56133 19.5195 0 20.2152 0 21.0812V23.4258C0 24.2886 0.699219 24.9875 1.5613 24.9875H17.1793L15.9097 23.4254L1.56248 23.4258ZM24.7242 17.6579C24.3848 17.3915 23.8934 17.452 23.6278 17.7915L20.2867 22.8868L18.2102 20.8098C17.9051 20.5047 17.4102 20.5047 17.1051 20.8098C16.8 21.1149 16.8 21.6094 17.1051 21.9145L19.8672 24.6766C20.1723 24.9817 20.6668 24.9817 20.9719 24.6766C21.0461 24.6028 21.1016 24.5168 21.1399 24.4254L24.8582 18.754C25.1239 18.4145 25.0641 17.9235 24.7242 17.6579Z" fill="black"/>
</svg>
