<svg width="30" height="30" viewBox="0 0 30 30" fill="none" xmlns="http://www.w3.org/2000/svg">
<path d="M27.0555 21.2139C26.3785 20.5784 25.7196 19.9247 25.0796 19.2535C24.5418 18.7181 24.218 18.3286 24.218 18.3286L20.1707 16.4348C21.7911 14.634 22.6853 12.3158 22.6858 9.91501C22.6858 4.44901 18.147 0 12.5674 0C6.98781 0 2.44897 4.44901 2.44897 9.91501C2.44897 15.381 6.98781 19.83 12.5674 19.83C15.1158 19.83 17.4387 18.8952 19.221 17.3669L21.1536 21.3329C21.1536 21.3329 21.5511 21.6501 22.0975 22.1771C22.6569 22.6912 23.3927 23.3867 24.0981 24.1133L26.061 26.085L26.9341 27L30 23.9958L29.0662 23.1402C28.5184 22.6133 27.787 21.9136 27.0555 21.2139ZM12.5674 16.9972C8.58218 16.9972 5.33995 13.8201 5.33995 9.91501C5.33995 6.00991 8.58218 2.83286 12.5674 2.83286C16.5526 2.83286 19.7948 6.00991 19.7948 9.91501C19.7948 13.8201 16.5526 16.9972 12.5674 16.9972Z" fill="white"/>
</svg>
