<svg width="28" height="24" viewBox="0 0 28 24" fill="none" xmlns="http://www.w3.org/2000/svg">
<path fill-rule="evenodd" clip-rule="evenodd" d="M27.488 0.206837C27.6695 0.383791 27.7462 0.642441 27.6904 0.889818C26.8857 4.4528 25.1705 13.8098 24.7657 22.6376C24.7537 22.898 24.6038 23.1321 24.3722 23.2518C24.1408 23.3715 23.863 23.3586 23.6435 23.2178C20.2193 21.0207 13.3586 16.8114 12.4091 16.2346C12.2293 16.1252 12.1053 15.9435 12.0693 15.7361C12.0333 15.5286 12.0887 15.3159 12.2213 15.1522C12.325 15.0243 12.4361 14.8838 12.557 14.7308C13.189 13.9309 14.0906 12.7902 15.6061 11.3409C15.8971 11.0626 16.3587 11.073 16.6371 11.3641C16.9153 11.6551 16.905 12.1167 16.6139 12.395C15.2985 13.6529 14.4842 14.6482 13.8721 15.4194C15.7192 16.5509 20.2994 19.3697 23.3747 21.3175C23.8284 13.6124 25.1803 5.75116 26.0135 1.74622C19.7143 3.54829 8.82032 8.04942 2.66008 10.7278L7.99372 12.741C10.3926 11.1736 15.6985 7.89024 20.1011 5.77658C20.4641 5.60229 20.8997 5.75529 21.0739 6.11832C21.2484 6.48136 21.0952 6.91695 20.7322 7.09125C16.2153 9.25984 10.6858 12.7085 8.48574 14.1626C8.2905 14.2917 8.04517 14.3192 7.8262 14.2365L0.471664 11.4606C0.194784 11.356 0.00854064 11.0946 0.00028647 10.7987C-0.00798228 10.5029 0.163372 10.2314 0.433995 10.1116C6.39996 7.47043 20.0764 1.72808 26.7999 0.0224017C27.0457 -0.0399567 27.3063 0.029883 27.488 0.206837Z" fill="white"/>
</svg>
