<svg width="35" height="35" viewBox="0 0 35 35" fill="none" xmlns="http://www.w3.org/2000/svg">
<path d="M24.4896 28.4375L20.6302 24.5781C20.3455 24.2933 20.3455 23.8317 20.6302 23.5469C20.915 23.2621 21.3767 23.2621 21.6614 23.5469L25.5208 27.4063L29.3802 23.5469C29.665 23.2621 30.1267 23.2621 30.4114 23.5469C30.6962 23.8317 30.6962 24.2933 30.4114 24.5781L26.552 28.4375L30.4114 32.2969C30.6962 32.5817 30.6962 33.0433 30.4114 33.3281C30.1267 33.6129 29.665 33.6129 29.3802 33.3281L25.5208 29.4687L21.6614 33.3281C21.3767 33.6129 20.915 33.6129 20.6302 33.3281C20.3455 33.0433 20.3455 32.5817 20.6302 32.2969L24.4896 28.4375ZM20.4787 19.7825C19.5692 20.19 18.5611 20.4167 17.5 20.4167C16.4411 20.4167 15.4349 20.1909 14.5269 19.785L8.57398 22.4908C7.79306 22.8458 7.29168 23.6244 7.29168 24.4823V25.5208C7.29168 26.729 8.27105 27.7083 9.47918 27.7083H16.7708C17.1736 27.7083 17.5 28.0348 17.5 28.4375C17.5 28.8402 17.1736 29.1667 16.7708 29.1667H9.47918C7.46564 29.1667 5.83334 27.5344 5.83334 25.5208V24.4823C5.83334 23.0526 6.66898 21.7548 7.97052 21.1632L13.0115 18.8719C11.3051 17.5372 10.2083 15.4592 10.2083 13.125C10.2083 9.09793 13.4729 5.83334 17.5 5.83334C21.5271 5.83334 24.7917 9.09793 24.7917 13.125C24.7917 15.448 23.7054 17.5173 22.013 18.8526L25.8076 20.4754C26.1778 20.6338 26.3496 21.0623 26.1913 21.4326C26.0329 21.8028 25.6044 21.9746 25.2341 21.8163L20.4787 19.7825ZM17.5 18.9583C20.7217 18.9583 23.3333 16.3467 23.3333 13.125C23.3333 9.90334 20.7217 7.29167 17.5 7.29167C14.2783 7.29167 11.6667 9.90334 11.6667 13.125C11.6667 16.3467 14.2783 18.9583 17.5 18.9583Z" fill="white"/>
</svg>
