<svg width="28" height="26" viewBox="0 0 28 26" fill="none" xmlns="http://www.w3.org/2000/svg">
<path d="M13.2717 24.503H6.24595C4.33659 24.503 2.78739 23.0543 2.78739 21.2806V5.50375C2.78739 3.72473 4.34231 2.28127 6.24595 2.28127H13.386C13.8148 2.28127 14.1578 1.96169 14.1578 1.5622C14.1578 1.16272 13.8148 0.84314 13.386 0.84314H6.24595C3.48481 0.84314 1.2439 2.93642 1.2439 5.50375V21.2806C1.2439 23.8532 3.49053 25.9412 6.24595 25.9412H13.2717C13.7004 25.9412 14.0434 25.6216 14.0434 25.2221C14.0434 24.8226 13.6947 24.503 13.2717 24.503Z" fill="white"/>
<path d="M25.9855 12.8862L21.0806 8.31609C20.7776 8.0338 20.2917 8.0338 19.9887 8.31609C19.6857 8.59839 19.6857 9.05114 19.9887 9.33344L23.5788 12.6784H7.92091C7.49217 12.6784 7.14917 12.998 7.14917 13.3975C7.14917 13.797 7.49217 14.1166 7.92091 14.1166H23.5788L19.9887 17.4615C19.6857 17.7438 19.6857 18.1966 19.9887 18.4789C20.1373 18.6174 20.3374 18.6919 20.5318 18.6919C20.7262 18.6919 20.9262 18.6227 21.0749 18.4789L25.9797 13.9088C26.2884 13.6212 26.2884 13.1631 25.9855 12.8862Z" fill="white"/>
</svg>
