<svg width="30" height="26" viewBox="0 0 30 26" fill="none" xmlns="http://www.w3.org/2000/svg">
<path d="M15.7298 2.28126L23.2239 2.28126C25.2605 2.28126 26.913 3.73004 26.913 5.50373L26.913 21.2806C26.913 23.0596 25.2544 24.503 23.2239 24.503L15.6078 24.503C15.1505 24.503 14.7846 24.8226 14.7846 25.2221C14.7846 25.6216 15.1505 25.9412 15.6078 25.9412L23.2239 25.9412C26.1691 25.9412 28.5594 23.8479 28.5594 21.2806L28.5594 5.50373C28.5594 2.93108 26.163 0.843124 23.2239 0.843124L15.7298 0.843124C15.2725 0.843124 14.9066 1.16271 14.9066 1.56219C14.9066 1.96167 15.2785 2.28126 15.7298 2.28126Z" fill="#020202"/>
<path d="M2.16843 13.8981L7.40029 18.4682C7.72347 18.7505 8.24177 18.7505 8.56495 18.4682C8.88813 18.1859 8.88813 17.7332 8.56495 17.4509L4.73557 14.1059L21.4373 14.1059C21.8946 14.1059 22.2605 13.7863 22.2605 13.3868C22.2605 12.9873 21.8946 12.6677 21.4373 12.6677L4.73557 12.6677L8.56495 9.32276C8.88813 9.04046 8.88813 8.58772 8.56495 8.30542C8.40641 8.16693 8.19299 8.09236 7.98567 8.09236C7.77835 8.09236 7.56493 8.16161 7.40638 8.30542L2.17453 12.8755C1.84525 13.1631 1.84525 13.6212 2.16843 13.8981Z" fill="#020202"/>
</svg>
