<svg width="22" height="6" viewBox="0 0 22 6" fill="none" xmlns="http://www.w3.org/2000/svg">
<path d="M11 6C10.2044 6 9.44129 5.68393 8.87868 5.12132C8.31607 4.55871 8 3.79565 8 3C8 2.20435 8.31607 1.44129 8.87868 0.878679C9.44129 0.31607 10.2044 0 11 0C11.7956 0 12.5587 0.31607 13.1213 0.878679C13.6839 1.44129 14 2.20435 14 3C14 3.79565 13.6839 4.55871 13.1213 5.12132C12.5587 5.68393 11.7956 6 11 6Z" fill="#222222"/>
<path d="M3 6C2.20435 6 1.44129 5.68393 0.878679 5.12132C0.31607 4.55871 0 3.79565 0 3C0 2.20435 0.31607 1.44129 0.878679 0.878679C1.44129 0.31607 2.20435 0 3 0C3.79565 0 4.55871 0.31607 5.12132 0.878679C5.68393 1.44129 6 2.20435 6 3C6 3.79565 5.68393 4.55871 5.12132 5.12132C4.55871 5.68393 3.79565 6 3 6Z" fill="#222222"/>
<path d="M19 6C18.2044 6 17.4413 5.68393 16.8787 5.12132C16.3161 4.55871 16 3.79565 16 3C16 2.20435 16.3161 1.44129 16.8787 0.878679C17.4413 0.31607 18.2044 0 19 0C19.7956 0 20.5587 0.31607 21.1213 0.878679C21.6839 1.44129 22 2.20435 22 3C22 3.79565 21.6839 4.55871 21.1213 5.12132C20.5587 5.68393 19.7956 6 19 6Z" fill="#222222"/>
</svg>
